<svg width="48.000000" height="48.000000" viewBox="0 0 48 48" fill="none" xmlns="http://www.w3.org/2000/svg" xmlns:xlink="http://www.w3.org/1999/xlink">
	<desc>
			Created with Pixso.
	</desc>
	<defs/>
	<path d="M0 24C0 10.74 10.74 0 24 0C37.25 0 48 10.74 48 24C48 37.25 37.25 48 24 48C10.74 48 0 37.25 0 24ZM36.26 18.07C35.97 16.94 35.1 16.05 34 15.74C32 15.2 24 15.2 24 15.2C24 15.2 15.99 15.2 13.99 15.74C12.89 16.05 12.02 16.94 11.73 18.07C11.2 20.12 11.2 24.39 11.2 24.39C11.2 24.39 11.2 28.67 11.73 30.72C12.02 31.85 12.89 32.74 13.99 33.05C15.99 33.6 24 33.6 24 33.6C24 33.6 32 33.6 34 33.05C35.1 32.74 35.97 31.85 36.26 30.72C36.79 28.67 36.79 24.39 36.79 24.39C36.79 24.39 36.79 20.12 36.26 18.07Z" fill="#FFFFFF" fill-opacity="1.000000" fill-rule="evenodd"/>
	<path d="M21.59 28.79L21.59 20.79L28 24.79L21.59 28.79Z" fill="#FFFFFF" fill-opacity="1.000000" fill-rule="evenodd"/>
</svg>
